<?xml version="1.0" standalone="no"?>
<!DOCTYPE svg PUBLIC "-//W3C//DTD SVG 20010904//EN"
 "http://www.w3.org/TR/2001/REC-SVG-20010904/DTD/svg10.dtd">
<svg version="1.0" xmlns="http://www.w3.org/2000/svg"
 width="150.000000pt" height="146.000000pt" viewBox="0 0 150.000000 146.000000"
 preserveAspectRatio="xMidYMid meet">
<metadata>
Created by potrace 1.10, written by Peter Selinger 2001-2011
</metadata>
<g transform="translate(0.000000,146.000000) scale(0.100000,-0.100000)"
fill="#000000" stroke="none">
<path d="M641 1245 c-107 -24 -185 -67 -266 -148 -110 -111 -154 -216 -155
-372 0 -152 47 -263 156 -372 242 -244 631 -203 824 87 53 79 72 145 78 262 5
128 -15 209 -76 303 -83 127 -202 210 -345 239 -91 19 -131 19 -216 1z m239
-32 c20 -8 28 -10 44 -12 8 0 28 -13 45 -27 17 -14 31 -23 31 -20 0 4 11 -1
25 -10 14 -9 22 -21 18 -27 -3 -5 -1 -7 5 -3 13 8 102 -76 102 -98 0 -9 7 -16
15 -16 8 0 15 -5 15 -11 0 -6 6 -17 14 -25 8 -7 13 -25 12 -39 -2 -13 0 -22 4
-20 13 8 38 -71 34 -109 -2 -20 1 -36 6 -36 6 0 10 -5 10 -11 0 -5 -3 -8 -7
-6 -5 3 -8 -23 -9 -56 -1 -88 -7 -126 -18 -124 -6 1 -10 -2 -11 -8 -1 -21 -28
-75 -37 -75 -5 0 -7 -4 -3 -9 3 -5 0 -16 -7 -23 -7 -8 -18 -23 -24 -33 -8 -13
-21 -19 -35 -17 -18 1 -20 0 -10 -7 12 -7 8 -15 -18 -41 -20 -20 -37 -30 -47
-26 -13 5 -14 9 -4 21 7 8 16 12 21 9 5 -3 9 0 9 7 0 6 14 25 31 42 25 23 33
27 40 16 6 -9 9 -10 9 -2 0 6 -5 15 -11 18 -7 5 -3 15 11 30 12 13 28 40 35
62 7 21 17 37 22 36 4 -2 9 9 10 25 1 15 4 41 7 57 10 55 6 168 -6 181 -5 4
-8 12 -8 18 0 6 5 4 11 -4 14 -20 9 -6 -25 65 -16 33 -33 62 -37 63 -5 2 -7 7
-4 11 2 4 -11 24 -30 44 -19 21 -35 42 -35 48 0 5 -4 7 -10 4 -5 -3 -10 -2
-10 3 0 14 -115 84 -123 76 -2 -3 -10 2 -16 10 -7 8 -19 12 -27 9 -8 -3 -14
-1 -14 5 0 6 -10 8 -22 5 -19 -4 -20 -3 -8 7 12 9 10 10 -10 4 -14 -4 -29 -7
-35 -6 -5 1 -30 4 -55 7 -28 4 -64 0 -95 -9 -95 -28 -155 -51 -155 -59 0 -5 5
-5 12 -1 7 4 8 3 4 -5 -4 -6 -11 -9 -16 -6 -5 3 -18 -2 -28 -12 -11 -10 -38
-35 -61 -56 -22 -20 -41 -42 -41 -48 0 -6 -6 -9 -14 -6 -10 4 -13 0 -11 -14 3
-12 0 -17 -7 -13 -7 5 -9 1 -5 -9 3 -10 2 -17 -3 -17 -6 0 -10 -6 -10 -13 0
-7 -9 -29 -19 -50 -10 -20 -15 -37 -11 -37 4 0 4 -17 -1 -37 -11 -53 -10 -140
3 -188 7 -22 11 -44 9 -49 -1 -4 3 -14 10 -22 6 -8 9 -23 6 -35 -4 -15 -2 -19
8 -15 13 5 52 -41 47 -57 -1 -5 2 -6 8 -2 5 3 10 2 10 -4 0 -14 58 -69 66 -62
4 3 4 0 0 -7 -5 -8 7 -19 36 -32 24 -11 39 -20 33 -20 -5 -1 16 -9 48 -20 32
-10 63 -22 70 -28 6 -5 26 -9 44 -7 21 1 30 -2 26 -9 -4 -6 0 -5 9 2 9 7 33
13 55 12 46 0 74 4 90 13 6 4 14 3 18 -3 4 -6 11 -7 17 -4 6 4 5 10 -3 16 -11
8 -10 9 3 4 10 -3 20 -1 24 5 3 6 11 8 17 6 7 -2 17 2 22 9 16 22 57 22 61 1
1 -11 0 -16 -3 -13 -4 3 -15 -1 -25 -11 -10 -9 -18 -13 -18 -8 0 4 -6 2 -14
-4 -8 -7 -27 -14 -43 -15 -15 -2 -32 -4 -36 -5 -5 0 -6 -5 -3 -10 3 -4 -11 -6
-30 -4 -27 3 -34 0 -28 -9 5 -10 4 -11 -7 0 -14 13 -33 17 -26 4 3 -4 -18 -6
-46 -5 -29 0 -65 2 -80 2 -16 1 -26 5 -22 11 3 6 1 10 -4 10 -6 0 -11 -4 -11
-9 0 -5 -9 -7 -21 -4 -11 3 -18 11 -15 19 3 7 0 16 -6 20 -7 4 -8 3 -4 -4 4
-7 2 -12 -3 -12 -6 0 -14 0 -18 0 -5 0 -8 4 -8 9 0 5 -4 13 -9 18 -5 5 -6 2
-1 -6 6 -10 2 -11 -16 -6 -29 9 -68 37 -69 48 0 5 -5 5 -12 1 -6 -4 -8 -3 -4
4 3 6 -7 16 -23 23 -16 7 -27 18 -24 25 2 7 -1 15 -8 20 -8 5 -10 3 -4 -7 5
-8 4 -11 -1 -6 -5 5 -9 13 -9 18 0 5 -4 10 -10 11 -16 3 -74 101 -75 126 0 16
-4 21 -12 16 -7 -4 -10 -4 -6 1 4 4 3 14 -4 22 -13 16 -20 243 -8 243 4 0 6 9
3 20 -3 11 0 20 6 20 6 0 11 5 11 11 0 5 -6 7 -12 4 -7 -4 -4 1 6 9 11 9 17
16 13 16 -4 0 0 11 9 25 8 13 12 30 8 36 -4 8 -3 9 4 5 11 -6 16 5 13 26 0 4
10 15 22 25 13 10 25 23 26 28 9 28 14 33 33 38 13 4 17 10 12 19 -4 7 -4 10
1 6 5 -5 14 1 22 12 15 21 80 43 97 33 6 -4 4 2 -4 13 -8 10 -10 16 -6 12 5
-4 15 -3 23 3 29 25 143 45 231 42 48 -3 94 -7 102 -10z m57 -93 c280 -131
339 -502 114 -713 -170 -159 -435 -158 -604 2 -183 173 -182 462 2 634 131
122 326 153 488 77z"/>
<path d="M553 960 c-12 -5 -24 -19 -28 -31 -6 -18 8 -36 81 -110 l88 -89 -87
-88 c-48 -49 -87 -96 -87 -104 0 -18 31 -48 51 -48 7 0 53 39 101 87 l88 88
83 -83 c81 -81 110 -95 135 -70 25 25 11 54 -70 135 l-83 83 83 83 c81 81 95
110 70 135 -25 25 -53 10 -134 -70 l-84 -82 -89 87 c-49 48 -90 87 -92 86 -2
0 -14 -4 -26 -9z m65 -70 c10 -11 12 -11 6 -1 -5 9 -3 12 5 7 6 -4 9 -11 6
-16 -3 -4 2 -13 10 -20 8 -7 12 -17 8 -23 -3 -6 -1 -7 5 -3 7 4 27 -8 47 -29
41 -40 53 -43 85 -15 13 11 29 20 35 20 7 0 16 7 19 16 3 8 10 13 16 9 5 -3
12 6 16 20 3 14 12 25 20 25 8 0 14 6 14 14 0 21 20 30 33 16 9 -10 9 -14 -1
-17 -6 -3 -10 -9 -6 -14 3 -5 -2 -9 -11 -9 -9 0 -13 -5 -10 -10 3 -6 -2 -13
-12 -17 -19 -7 -59 -43 -47 -43 4 0 -3 -9 -16 -20 -13 -12 -30 -18 -38 -15
-11 4 -12 2 -5 -7 6 -7 9 -23 7 -36 -2 -13 -1 -21 3 -19 5 3 14 -1 21 -9 7 -8
8 -14 3 -14 -5 0 13 -23 42 -52 29 -29 55 -51 60 -50 4 1 7 -5 7 -14 0 -9 5
-12 13 -8 7 5 6 1 -2 -10 -14 -16 -16 -16 -26 -2 -7 9 -16 12 -20 8 -5 -4 -5
-2 -1 5 3 6 2 14 -4 18 -6 4 -8 10 -5 15 3 4 -4 6 -15 3 -15 -4 -19 -2 -14 10
3 8 0 18 -7 23 -8 5 -10 3 -4 -7 5 -8 -7 0 -27 18 -51 43 -72 48 -107 24 -27
-19 -41 -19 -41 2 0 5 6 7 14 4 9 -4 12 2 10 19 -1 13 2 27 7 30 6 3 5 12 -3
22 -10 12 -10 14 -1 8 9 -5 11 -2 7 9 -4 9 -13 14 -21 11 -8 -3 -11 -2 -8 3 3
5 1 12 -5 16 -6 4 -7 11 -4 17 4 7 2 8 -4 4 -13 -8 -71 52 -72 73 0 8 -3 11
-7 8 -10 -11 -32 13 -26 29 6 15 22 7 51 -26z m54 -257 c-6 -3 -10 -9 -7 -13
3 -5 -11 -20 -32 -34 -21 -15 -34 -26 -30 -26 4 0 2 -6 -5 -13 -16 -18 -42
-19 -27 -1 6 7 7 19 3 25 -4 7 -3 10 2 7 5 -3 27 13 49 36 25 26 44 38 50 33
7 -6 6 -11 -3 -14z"/>
</g>
</svg>
